<svg xmlns="http://www.w3.org/2000/svg" viewBox="0 0 600 215.82">
  <defs>
    <style>
      .cls-1 { fill: none; }
      .cls-2 { fill: currentColor; }
    </style>
  </defs>
  <g id="Logo">
    <g>
      <g>
        <path class="cls-2" d="m286.86,153.12v17.72h-4.19v-17.72h-5.6v-3.74h15.4v3.74h-5.6Z"></path>
        <path class="cls-2" d="m299.8,170.84v-21.45h4.19v21.45h-4.19Z"></path>
        <path class="cls-2" d="m327.85,170.84v-12.5l-4.1,8.14h-2.83l-4.13-8.14v12.5h-4.19v-21.45h4.13l5.6,11.6,5.57-11.6h4.13v21.45h-4.19Z"></path>
        <path class="cls-2" d="m349.71,170.84h-8.98v-21.45h8.62c4.19,0,6.63,2.35,6.63,6.03,0,2.38-1.57,3.92-2.65,4.43,1.3.6,2.95,1.96,2.95,4.82,0,4.01-2.74,6.18-6.57,6.18Zm-.69-17.72h-4.1v4.94h4.1c1.78,0,2.77-.99,2.77-2.47s-.99-2.47-2.77-2.47Zm.27,8.71h-4.37v5.27h4.37c1.9,0,2.8-1.21,2.8-2.65s-.9-2.62-2.8-2.62Z"></path>
        <path class="cls-2" d="m364.21,170.84v-21.45h14.13v3.74h-9.94v5.03h8.47v3.74h-8.47v5.21h9.94v3.74h-14.13Z"></path>
        <path class="cls-2" d="m397.56,170.84l-4.19-8.56h-3.01v8.56h-4.19v-21.45h8.41c4.37,0,6.96,2.98,6.96,6.57,0,3.01-1.84,4.88-3.92,5.63l4.79,9.25h-4.85Zm-3.25-17.72h-3.95v5.66h3.95c1.84,0,3.04-1.17,3.04-2.83s-1.21-2.83-3.04-2.83Z"></path>
        <path class="cls-2" d="m426.09,153.12v5.27h8.47v3.74h-8.47v8.71h-4.19v-21.45h14.13v3.74h-9.94Z"></path>
        <path class="cls-2" d="m443.48,170.84v-21.45h4.19v17.72h9.73v3.74h-13.92Z"></path>
        <path class="cls-2" d="m477.67,168.76c-1.45,1.45-3.25,2.26-5.72,2.26s-4.31-.81-5.75-2.26c-2.14-2.14-2.17-4.55-2.17-8.65s.03-6.51,2.17-8.65c1.45-1.45,3.28-2.26,5.75-2.26s4.28.81,5.72,2.26c2.14,2.14,2.2,4.55,2.2,8.65s-.06,6.51-2.2,8.65Zm-3.04-14.67c-.6-.69-1.54-1.14-2.68-1.14s-2.08.45-2.71,1.14c-.78.9-1.02,1.93-1.02,6.03s.24,5.09,1.02,6c.63.69,1.57,1.18,2.71,1.18s2.08-.48,2.68-1.18c.78-.9,1.05-1.9,1.05-6s-.27-5.12-1.05-6.03Z"></path>
        <path class="cls-2" d="m500.95,168.76c-1.45,1.45-3.25,2.26-5.72,2.26s-4.31-.81-5.75-2.26c-2.14-2.14-2.17-4.55-2.17-8.65s.03-6.51,2.17-8.65c1.45-1.45,3.28-2.26,5.75-2.26s4.28.81,5.72,2.26c2.14,2.14,2.2,4.55,2.2,8.65s-.06,6.51-2.2,8.65Zm-3.04-14.67c-.6-.69-1.54-1.14-2.68-1.14s-2.08.45-2.71,1.14c-.78.9-1.02,1.93-1.02,6.03s.24,5.09,1.02,6c.63.69,1.57,1.18,2.71,1.18s2.08-.48,2.68-1.18c.78-.9,1.05-1.9,1.05-6s-.27-5.12-1.05-6.03Z"></path>
        <path class="cls-2" d="m522.61,170.84l-4.19-8.56h-3.01v8.56h-4.19v-21.45h8.41c4.37,0,6.96,2.98,6.96,6.57,0,3.01-1.84,4.88-3.92,5.63l4.79,9.25h-4.85Zm-3.25-17.72h-3.95v5.66h3.95c1.84,0,3.04-1.17,3.04-2.83s-1.21-2.83-3.04-2.83Z"></path>
        <path class="cls-2" d="m541.21,171.02c-3.25,0-5.72-.69-7.83-2.83l2.71-2.71c1.36,1.36,3.19,1.81,5.15,1.81,2.5,0,3.83-.96,3.83-2.68,0-.72-.21-1.33-.66-1.78-.42-.39-.84-.57-1.93-.72l-2.56-.39c-1.9-.27-3.19-.84-4.16-1.78-1.02-.99-1.54-2.41-1.54-4.22,0-3.83,2.83-6.51,7.47-6.51,2.95,0,5.09.72,6.93,2.5l-2.65,2.62c-1.33-1.3-2.98-1.48-4.4-1.48-2.23,0-3.28,1.24-3.28,2.71,0,.57.15,1.12.6,1.54.42.39,1.05.69,1.96.81l2.56.39c1.96.27,3.16.78,4.1,1.69,1.14,1.05,1.66,2.59,1.66,4.52,0,4.16-3.43,6.51-7.95,6.51Z"></path>
      </g>
      <rect class="cls-2" x="53.04" y="158.91" width="215.85" height="4.13"></rect>
      <path class="cls-2" d="m56.23,46.12h34.69v72.53c0,13.01-6.83,20.76-22.73,20.76s-22.73-7.75-22.73-20.76v-8.8h16.55v9.46c0,3.16,1.58,4.86,6.17,4.86s6.18-1.71,6.18-4.86v-58.2h-18.13v-14.98Z"></path>
      <path class="cls-2" d="m137.12,46.12v15.24h-19.71v20.37h13.93v15.24h-13.93v25.88h20.23v15.24h-36.79V46.12h36.26Z"></path>
      <path class="cls-2" d="m224.35,46.12v15.24h-18.92v20.37h13.93v15.24h-13.93v41.13h-16.55V46.12h35.47Z"></path>
      <path class="cls-2" d="m181,46.12v15.24h-18.92v20.37h13.93v15.24h-13.93v41.13h-16.55V46.12h35.47Z"></path>
      <path class="cls-2" d="m268.36,46.12v15.24h-19.71v20.37h13.93v15.24h-13.93v25.88h20.23v15.24h-36.79V46.12h36.26Z"></path>
      <path class="cls-2" d="m321.04,106.56v20.37c0,3.94,1.32,8.41,2.63,11.17h-15.37c-3.29-4.07-3.94-10.38-3.94-18.39v-13.93c0-5.38-3.55-7.22-7.09-7.22h-3.81v39.55h-16.55V46.12h28.25c10.51,0,14.98,5.12,14.98,15.63v19.71c0,7.1-1.71,10.77-8.15,12.22,8.54,2.5,9.07,6.44,9.07,12.87Zm-27.59-45.2v24.31h6.44c2.37,0,3.68-1.31,3.68-3.68v-16.95c0-2.36-1.32-3.68-3.68-3.68h-6.44Z"></path>
      <path class="cls-2" d="m349.92,80.15l18.13,16.95c3.68,3.55,4.73,8.01,4.73,13.4v8.15c0,13.01-6.96,20.76-22.07,20.76s-21.55-7.75-21.55-20.63v-9.07h16.55v9.59c0,3.16,1.18,4.86,4.99,4.86s5.52-1.71,5.52-4.86v-6.17c0-3.94-1.58-6.7-4.2-9.07l-18.13-16.95c-3.68-3.55-4.73-8.01-4.73-13.4v-8.15c0-13.01,6.96-20.76,22.07-20.76s21.55,7.75,21.55,20.63v9.07h-16.55v-9.59c0-3.15-1.18-4.86-4.99-4.86s-5.52,1.71-5.52,4.86v6.18c0,3.94,1.58,6.7,4.2,9.06Z"></path>
      <path class="cls-2" d="m424.99,118.64c0,13.01-6.97,20.76-22.07,20.76s-22.07-7.75-22.07-20.76v-53.08c0-13.01,6.97-20.76,22.07-20.76s22.07,7.75,22.07,20.76v53.08Zm-27.59-53.74v54.39c0,3.16,1.71,4.86,5.52,4.86s5.52-1.71,5.52-4.86v-54.39c0-3.15-1.71-4.86-5.52-4.86s-5.52,1.71-5.52,4.86Z"></path>
      <path class="cls-2" d="m466.48,46.12h16.55v91.97h-16.55l-15.64-48.74v48.74h-16.55V46.12h16.55l15.64,46.25v-46.25Z"></path>
      <path class="cls-2" d="m496.92,61.23h-6.04v-15.11h15.11v15.11l-11.82,19.84h-3.29l6.04-19.84Z"></path>
      <path class="cls-2" d="m531.68,80.15l18.13,16.95c3.68,3.55,4.73,8.01,4.73,13.4v8.15c0,13.01-6.96,20.76-22.07,20.76s-21.55-7.75-21.55-20.63v-9.07h16.55v9.59c0,3.16,1.18,4.86,4.99,4.86s5.52-1.71,5.52-4.86v-6.17c0-3.94-1.58-6.7-4.2-9.07l-18.13-16.95c-3.68-3.55-4.73-8.01-4.73-13.4v-8.15c0-13.01,6.96-20.76,22.07-20.76s21.55,7.75,21.55,20.63v9.07h-16.55v-9.59c0-3.15-1.18-4.86-4.99-4.86s-5.52,1.71-5.52,4.86v6.18c0,3.94,1.58,6.7,4.21,9.06Z"></path>
    </g>
  </g>
</svg>